
<svg xmlns="http://www.w3.org/2000/svg"
     class="svg-snoweb svg-theme-light"
     x="0"
     y="0"
     width="100%"
     height="100%"
     viewBox="0 0 100 100"
     preserveAspectRatio="xMidYMid meet"
>
<defs>
    <style>
        .svg-fill-primary {
            fill: #FFF;
        }

        .svg-fill-secondary {
            fill: #FFF;
        }

        .svg-fill-tertiary {
            fill: #E5E7EB;
        }

        .svg-stroke-primary {
            stroke: #090D49;
        }

        .svg-stroke-secondary {
            stroke: #65CDAE;
        }

        .svg-stroke-tertiary {
            stroke: #E5E7EB;
        }
    </style>
</defs>
    

<clipPath id="clip-path-202212-0322-2413-297cfed3-77bd-45b6-b857-5b1e64d601bb">
    <circle cx="50" cy="50" r="50"></circle>
</clipPath>

<circle 
        class="svg-fill-tertiary"
        cx="50"
        cy="50"
        r="50">
</circle>
<circle 
        class="svg-fill-secondary svg-builder-circle"
        cx="50"
        cy="50"
        r="50">
</circle>

    <g transform="translate(20.00, 20.00) scale(0.60, 0.60)">
        
    <path d="M12.2,33.2,45.3,55.3a8.5,8.5,0,0,0,9.4,0L87.8,33.2M20.6,79.4H79.4A8.3,8.3,0,0,0,87.8,71V29a8.3,8.3,0,0,0-8.4-8.4H20.6A8.3,8.3,0,0,0,12.2,29V71A8.3,8.3,0,0,0,20.6,79.4Z"
      class="svg-stroke-primary" fill="none" stroke-linecap="round" stroke-linejoin="round" stroke-width="8"/>


    </g>
</svg>